<?xml version="1.0" encoding="UTF-8"?>
<!DOCTYPE svg PUBLIC "-//W3C//DTD SVG 1.1//EN" "http://www.w3.org/Graphics/SVG/1.1/DTD/svg11.dtd">
<svg xmlns="http://www.w3.org/2000/svg" version="1.1" width="500px" height="500px" style="shape-rendering:geometricPrecision; text-rendering:geometricPrecision; image-rendering:optimizeQuality; fill-rule:evenodd; clip-rule:evenodd" xmlns:xlink="http://www.w3.org/1999/xlink">
<g><path style="opacity:0.706" fill="#5b5c5b" d="M 254.5,56.5 C 247.798,56.3357 241.131,56.669 234.5,57.5C 238.034,55.9524 241.867,55.2857 246,55.5C 249.021,55.5022 251.854,55.8356 254.5,56.5 Z"/></g>
<g><path style="opacity:0.537" fill="#858585" d="M 212.5,68.5 C 212.027,69.9063 211.027,70.573 209.5,70.5C 209.973,69.0937 210.973,68.427 212.5,68.5 Z"/></g>
<g><path style="opacity:1" fill="#f6f6f7" d="M 390.5,151.5 C 385.366,152.907 380.366,154.574 375.5,156.5C 354.382,168.563 333.049,180.396 311.5,192C 304.744,195.089 300.577,200.255 299,207.5C 298.667,250.5 298.333,293.5 298,336.5C 297.117,339.102 295.617,341.269 293.5,343C 282.833,349 272.167,355 261.5,361C 256.769,363.956 253.602,368.123 252,373.5C 251.5,390.83 251.333,408.163 251.5,425.5C 247.59,425.737 243.923,424.904 240.5,423C 199.662,399.747 158.662,376.747 117.5,354C 112.074,350.871 106.907,347.371 102,343.5C 101.027,341.608 100.36,339.608 100,337.5C 99.3333,276.5 99.3333,215.5 100,154.5C 101.402,150.025 103.569,146.025 106.5,142.5C 146.171,119.998 185.838,97.498 225.5,75C 236.331,67.7087 247.664,66.7087 259.5,72C 299.874,95.5204 340.541,118.52 381.5,141C 385.798,143.459 388.798,146.959 390.5,151.5 Z"/></g>
<g><path style="opacity:0.502" fill="#818181" d="M 204.5,72.5 C 204.027,73.9063 203.027,74.573 201.5,74.5C 201.973,73.0937 202.973,72.427 204.5,72.5 Z"/></g>
<g><path style="opacity:1" fill="#181717" d="M 254.5,56.5 C 260.369,58.4323 266.036,60.9323 271.5,64C 299.896,80.1938 328.229,96.3605 356.5,112.5C 357.287,114.104 358.62,114.771 360.5,114.5C 362.027,114.427 363.027,115.094 363.5,116.5C 364.344,118.759 366.011,119.759 368.5,119.5C 373.09,121.439 377.423,123.773 381.5,126.5C 383.771,131.069 386.771,133.069 390.5,132.5C 395.017,133.75 398.35,136.417 400.5,140.5C 399.584,140.982 398.584,141.315 397.5,141.5C 394.833,139.833 392.167,138.167 389.5,136.5C 387.289,137.123 385.289,138.123 383.5,139.5C 384.868,140.594 386.035,140.26 387,138.5C 387.833,139.333 388.667,140.167 389.5,141C 387.842,141.725 387.342,142.892 388,144.5C 388.308,143.692 388.808,143.025 389.5,142.5C 391.451,143.256 393.284,143.589 395,143.5C 393.476,147.146 392.642,150.812 392.5,154.5C 391.833,153.5 391.167,152.5 390.5,151.5C 388.798,146.959 385.798,143.459 381.5,141C 340.541,118.52 299.874,95.5204 259.5,72C 247.664,66.7087 236.331,67.7087 225.5,75C 185.838,97.498 146.171,119.998 106.5,142.5C 106.265,141.903 105.765,141.57 105,141.5C 103.189,142.078 101.355,142.578 99.5,143C 100.654,143.914 100.487,144.747 99,145.5C 98.6924,144.692 98.1924,144.025 97.5,143.5C 95.0829,148.779 94.0829,148.612 94.5,143C 93.2068,142.51 91.8734,142.343 90.5,142.5C 92.225,137.939 95.225,134.439 99.5,132C 133.425,112.542 167.425,93.3754 201.5,74.5C 203.027,74.573 204.027,73.9063 204.5,72.5C 206.05,71.5592 207.716,70.8925 209.5,70.5C 211.027,70.573 212.027,69.9063 212.5,68.5C 219.279,63.7772 226.612,60.1105 234.5,57.5C 241.131,56.669 247.798,56.3357 254.5,56.5 Z"/></g>
<g><path style="opacity:0.145" fill="#c1c1c1" d="M 356.5,112.5 C 358.153,112.66 359.486,113.326 360.5,114.5C 358.62,114.771 357.287,114.104 356.5,112.5 Z"/></g>
<g><path style="opacity:0.853" fill="#737172" d="M 363.5,116.5 C 365.434,117.11 367.101,118.11 368.5,119.5C 366.011,119.759 364.344,118.759 363.5,116.5 Z"/></g>
<g><path style="opacity:0.873" fill="#515151" d="M 381.5,126.5 C 385.025,127.759 388.025,129.759 390.5,132.5C 386.771,133.069 383.771,131.069 381.5,126.5 Z"/></g>
<g><path style="opacity:1" fill="#141313" d="M 282.5,338.5 C 281.834,335.311 281.167,331.977 280.5,328.5C 273.779,332.527 266.779,336.027 259.5,339C 252.842,339.5 246.175,339.666 239.5,339.5C 232.842,339.006 227.508,336.173 223.5,331C 207.038,322.268 190.704,313.268 174.5,304C 173.333,302.833 172.167,301.667 171,300.5C 170.831,293.809 170.331,287.142 169.5,280.5C 161.338,276.253 153.338,271.753 145.5,267C 144.5,266.333 143.5,266.333 142.5,267C 135.167,271.333 127.833,275.667 120.5,280C 118.74,283.83 119.74,286.83 123.5,289C 161.705,310.268 200.038,331.268 238.5,352C 242.5,355 242.5,358 238.5,361C 236.5,361.667 234.5,361.667 232.5,361C 192.919,338.96 153.419,316.793 114,294.5C 112.561,292.725 111.561,290.725 111,288.5C 110.333,244.5 110.333,200.5 111,156.5C 112.36,153.265 114.527,150.765 117.5,149C 157.382,125.891 197.716,103.558 238.5,82C 245.543,80.7189 252.21,81.7189 258.5,85C 295.159,105.328 331.493,126.161 367.5,147.5C 345.662,160.253 323.662,172.753 301.5,185C 296.124,188.571 292.291,193.405 290,199.5C 288.687,243.787 288.021,288.121 288,332.5C 286.669,334.996 284.836,336.996 282.5,338.5 Z"/></g>
<g><path style="opacity:1" fill="#6a6869" d="M 181.5,129.5 C 180.539,131.265 180.205,133.265 180.5,135.5C 179.203,133.307 179.203,130.973 180.5,128.5C 181.107,128.624 181.44,128.957 181.5,129.5 Z"/></g>
<g><path style="opacity:1" fill="#cacbca" d="M 237.5,113.5 C 238.633,116.488 240.633,118.488 243.5,119.5C 239.59,119.263 235.923,120.096 232.5,122C 223.167,127.333 213.833,132.667 204.5,138C 202.212,138.418 200.212,137.751 198.5,136C 197.167,135.333 197.167,134.667 198.5,134C 207.425,129.399 216.092,124.399 224.5,119C 228.635,116.597 232.968,114.763 237.5,113.5 Z"/></g>
<g><path style="opacity:1" fill="#d2d2d2" d="M 195.5,119.5 C 196.805,121.397 197.471,123.731 197.5,126.5C 197.333,128.833 197.167,131.167 197,133.5C 189.004,129.54 188.504,124.874 195.5,119.5 Z"/></g>
<g><path style="opacity:1" fill="#f8f8f8" d="M 169.5,133.5 C 170.826,137.614 171.493,142.114 171.5,147C 171.167,151.5 170.833,156 170.5,160.5C 168.578,159.289 166.745,157.956 165,156.5C 164.333,149.833 164.333,143.167 165,136.5C 166.652,135.601 168.152,134.601 169.5,133.5 Z"/></g>
<g><path style="opacity:1" fill="#c8c8ca" d="M 240.5,129.5 C 242.144,129.286 243.644,129.62 245,130.5C 245.667,137.833 245.667,145.167 245,152.5C 243.887,153.711 242.72,153.711 241.5,152.5C 240.503,144.862 240.169,137.196 240.5,129.5 Z"/></g>
<g><path style="opacity:1" fill="#f2f2f2" d="M 243.5,119.5 C 240.633,118.488 238.633,116.488 237.5,113.5C 242.85,112.067 248.184,112.567 253.5,115C 278.833,129.333 304.167,143.667 329.5,158C 330.833,158.667 330.833,159.333 329.5,160C 327.35,161.59 325.017,162.257 322.5,162C 299.338,149.253 276.338,136.253 253.5,123C 250.395,121.132 247.062,119.965 243.5,119.5 Z"/></g>
<g><path style="opacity:1" fill="#f9f9f9" d="M 261.5,139.5 C 262.822,139.33 263.989,139.663 265,140.5C 265.5,148.493 265.666,156.493 265.5,164.5C 264.178,164.67 263.011,164.337 262,163.5C 261.5,155.507 261.334,147.507 261.5,139.5 Z"/></g>
<g><path style="opacity:1" fill="#f2f2f2" d="M 181.5,129.5 C 216.952,147.725 251.952,166.725 286.5,186.5C 287.5,189.242 286.5,191.242 283.5,192.5C 254.806,176.821 226.14,161.154 197.5,145.5C 195.574,143.707 193.241,142.707 190.5,142.5C 187.516,139.674 184.183,137.341 180.5,135.5C 180.205,133.265 180.539,131.265 181.5,129.5 Z"/></g>
<g><path style="opacity:0.231" fill="#8b8a8b" d="M 87.5,152.5 C 88.163,214.509 87.4963,276.176 85.5,337.5C 86.163,275.736 86.8297,214.069 87.5,152.5 Z"/></g>
<g><path style="opacity:0.998" fill="#141414" d="M 400.5,140.5 C 402.497,143.16 403.997,146.16 405,149.5C 405.333,155.5 405.667,161.5 406,167.5C 406.359,223.502 406.359,279.502 406,335.5C 412.333,339.5 418.667,343.5 425,347.5C 427.221,352.254 426.055,356.087 421.5,359C 369.853,387.967 318.187,416.967 266.5,446C 253.833,453.333 241.167,453.333 228.5,446C 176.402,416.233 124.069,386.9 71.5,358C 66.1158,353.007 66.4491,348.341 72.5,344C 76.8864,341.807 81.2198,339.64 85.5,337.5C 87.4963,276.176 88.163,214.509 87.5,152.5C 87.698,148.908 88.698,145.574 90.5,142.5C 91.8734,142.343 93.2068,142.51 94.5,143C 94.0829,148.612 95.0829,148.779 97.5,143.5C 98.1924,144.025 98.6924,144.692 99,145.5C 100.487,144.747 100.654,143.914 99.5,143C 101.355,142.578 103.189,142.078 105,141.5C 105.765,141.57 106.265,141.903 106.5,142.5C 103.569,146.025 101.402,150.025 100,154.5C 99.3333,215.5 99.3333,276.5 100,337.5C 100.36,339.608 101.027,341.608 102,343.5C 106.907,347.371 112.074,350.871 117.5,354C 158.662,376.747 199.662,399.747 240.5,423C 243.923,424.904 247.59,425.737 251.5,425.5C 251.333,408.163 251.5,390.83 252,373.5C 253.602,368.123 256.769,363.956 261.5,361C 272.167,355 282.833,349 293.5,343C 295.617,341.269 297.117,339.102 298,336.5C 298.333,293.5 298.667,250.5 299,207.5C 300.577,200.255 304.744,195.089 311.5,192C 333.049,180.396 354.382,168.563 375.5,156.5C 378.652,155.959 381.152,156.959 383,159.5C 383.824,207.541 383.657,255.541 382.5,303.5C 381.046,306.123 379.046,308.289 376.5,310C 355.481,320.84 334.814,332.173 314.5,344C 312.84,345.488 311.84,347.321 311.5,349.5C 310.34,361.66 310.173,373.993 311,386.5C 311.479,388.646 312.812,389.646 315,389.5C 338.68,377.075 362.18,364.242 385.5,351C 387.709,349.127 389.542,346.96 391,344.5C 392.489,281.225 392.989,217.892 392.5,154.5C 392.642,150.812 393.476,147.146 395,143.5C 393.284,143.589 391.451,143.256 389.5,142.5C 388.808,143.025 388.308,143.692 388,144.5C 387.342,142.892 387.842,141.725 389.5,141C 388.667,140.167 387.833,139.333 387,138.5C 386.035,140.26 384.868,140.594 383.5,139.5C 385.289,138.123 387.289,137.123 389.5,136.5C 392.167,138.167 394.833,139.833 397.5,141.5C 398.584,141.315 399.584,140.982 400.5,140.5 Z"/></g>
<g><path style="opacity:1" fill="#121214" d="M 330.5,346.5 C 331.496,346.414 332.329,346.748 333,347.5C 333.814,355.413 333.647,363.246 332.5,371C 331.216,371.684 330.049,371.517 329,370.5C 328.5,362.841 328.334,355.174 328.5,347.5C 329.167,347.167 329.833,346.833 330.5,346.5 Z"/></g>
<g><path style="opacity:1" fill="#1d1d1f" d="M 342.5,340.5 C 343.633,348.421 343.8,356.421 343,364.5C 341.667,367.167 340.333,367.167 339,364.5C 338.5,357.174 338.334,349.841 338.5,342.5C 339.605,341.4 340.938,340.733 342.5,340.5 Z"/></g>
<g><path style="opacity:1" fill="#c0c1c1" d="M 282.5,338.5 C 281.158,339.793 279.491,340.626 277.5,341C 264.631,341.812 251.964,341.312 239.5,339.5C 246.175,339.666 252.842,339.5 259.5,339C 266.779,336.027 273.779,332.527 280.5,328.5C 281.167,331.977 281.834,335.311 282.5,338.5 Z"/></g>
<g><path style="opacity:1" fill="#121213" d="M 371.5,323.5 C 372.496,323.414 373.329,323.748 374,324.5C 374.667,332.167 374.667,339.833 374,347.5C 372.644,348.38 371.144,348.714 369.5,348.5C 369.5,340.5 369.5,332.5 369.5,324.5C 370.167,324.167 370.833,323.833 371.5,323.5 Z"/></g>
<g><path style="opacity:1" fill="#131212" d="M 177.5,343.5 C 177.827,353.681 177.494,363.681 176.5,373.5C 156.559,362.527 136.559,351.527 116.5,340.5C 115.167,330.5 115.167,320.5 116.5,310.5C 136.988,321.244 157.322,332.244 177.5,343.5 Z"/></g>
<g><path style="opacity:1" fill="#c8c8ca" d="M 233.5,316.5 C 235.305,317.237 236.971,318.237 238.5,319.5C 239.661,323.795 239.828,328.129 239,332.5C 236.063,333.817 233.23,333.817 230.5,332.5C 231.5,332.5 232.5,332.5 233.5,332.5C 233.5,327.167 233.5,321.833 233.5,316.5 Z"/></g>
<g><path style="opacity:1" fill="#f3f3f3" d="M 233.5,316.5 C 233.5,321.833 233.5,327.167 233.5,332.5C 232.5,332.5 231.5,332.5 230.5,332.5C 228.771,331.883 227.271,330.883 226,329.5C 225.17,323.804 225.337,318.137 226.5,312.5C 228.85,313.861 231.184,315.194 233.5,316.5 Z"/></g>
<g><path style="opacity:1" fill="#c7c9c8" d="M 334.5,308.5 C 337.319,311.075 340.319,313.408 343.5,315.5C 336.177,319.919 328.677,324.252 321,328.5C 320.172,324.129 320.339,319.795 321.5,315.5C 325.615,312.707 329.949,310.374 334.5,308.5 Z"/></g>
<g><path style="opacity:1" fill="#f8f8f8" d="M 382.5,303.5 C 383.643,306.976 383.81,310.642 383,314.5C 379.406,317.946 375.573,320.946 371.5,323.5C 370.833,323.833 370.167,324.167 369.5,324.5C 366.008,325.41 363.008,327.076 360.5,329.5C 356.827,331 353.494,333 350.5,335.5C 348.188,336.32 345.854,337.153 343.5,338C 342.748,338.671 342.414,339.504 342.5,340.5C 340.938,340.733 339.605,341.4 338.5,342.5C 335.246,342.794 332.579,344.127 330.5,346.5C 329.833,346.833 329.167,347.167 328.5,347.5C 325.151,348.169 322.484,349.836 320.5,352.5C 319.833,352.833 319.167,353.167 318.5,353.5C 316.167,353.5 313.833,353.5 311.5,353.5C 311.5,352.167 311.5,350.833 311.5,349.5C 311.84,347.321 312.84,345.488 314.5,344C 334.814,332.173 355.481,320.84 376.5,310C 379.046,308.289 381.046,306.123 382.5,303.5 Z"/></g>
<g><path style="opacity:1" fill="#686869" d="M 317.5,284.5 C 317.56,283.957 317.893,283.624 318.5,283.5C 319.823,293.325 319.823,302.992 318.5,312.5C 318.827,302.985 318.494,293.652 317.5,284.5 Z"/></g>
<g><path style="opacity:1" fill="#d4d5d5" d="M 317.5,284.5 C 318.494,293.652 318.827,302.985 318.5,312.5C 315.943,314.032 313.443,315.699 311,317.5C 310.333,307.833 310.333,298.167 311,288.5C 312.944,286.779 315.11,285.446 317.5,284.5 Z"/></g>
<g><path style="opacity:1" fill="#ececed" d="M 174.5,283.5 C 177.223,285.281 180.057,286.948 183,288.5C 183.499,293.155 183.666,297.821 183.5,302.5C 180.03,303.125 177.196,302.125 175,299.5C 174.501,294.177 174.334,288.844 174.5,283.5 Z"/></g>
<g><path style="opacity:1" fill="#ebebeb" d="M 322.5,251.5 C 327.938,254.053 333.271,256.887 338.5,260C 329.5,265.167 320.5,270.333 311.5,275.5C 310.359,273.579 310.192,271.579 311,269.5C 314.667,267.167 318.333,264.833 322,262.5C 322.499,258.848 322.665,255.182 322.5,251.5 Z"/></g>
<g><path style="opacity:1" fill="#d1d1d3" d="M 365.5,288.5 C 364.85,288.196 364.183,287.863 363.5,287.5C 363.161,264.152 362.161,241.152 360.5,218.5C 361.848,217.399 363.348,216.399 365,215.5C 365.5,239.831 365.667,264.164 365.5,288.5 Z"/></g>
<g><path style="opacity:1" fill="#d2d4d4" d="M 390.5,151.5 C 391.167,152.5 391.833,153.5 392.5,154.5C 392.989,217.892 392.489,281.225 391,344.5C 389.542,346.96 387.709,349.127 385.5,351C 362.18,364.242 338.68,377.075 315,389.5C 312.812,389.646 311.479,388.646 311,386.5C 310.173,373.993 310.34,361.66 311.5,349.5C 311.5,350.833 311.5,352.167 311.5,353.5C 313.833,353.5 316.167,353.5 318.5,353.5C 318.334,361.174 318.5,368.841 319,376.5C 320.587,377.727 321.921,377.394 323,375.5C 323.667,368.167 323.667,360.833 323,353.5C 322.329,352.748 321.496,352.414 320.5,352.5C 322.484,349.836 325.151,348.169 328.5,347.5C 328.334,355.174 328.5,362.841 329,370.5C 330.049,371.517 331.216,371.684 332.5,371C 333.647,363.246 333.814,355.413 333,347.5C 332.329,346.748 331.496,346.414 330.5,346.5C 332.579,344.127 335.246,342.794 338.5,342.5C 338.334,349.841 338.5,357.174 339,364.5C 340.333,367.167 341.667,367.167 343,364.5C 343.8,356.421 343.633,348.421 342.5,340.5C 342.414,339.504 342.748,338.671 343.5,338C 345.854,337.153 348.188,336.32 350.5,335.5C 353.494,333 356.827,331 360.5,329.5C 363.008,327.076 366.008,325.41 369.5,324.5C 369.5,332.5 369.5,340.5 369.5,348.5C 371.144,348.714 372.644,348.38 374,347.5C 374.667,339.833 374.667,332.167 374,324.5C 373.329,323.748 372.496,323.414 371.5,323.5C 375.573,320.946 379.406,317.946 383,314.5C 383.81,310.642 383.643,306.976 382.5,303.5C 383.657,255.541 383.824,207.541 383,159.5C 381.152,156.959 378.652,155.959 375.5,156.5C 380.366,154.574 385.366,152.907 390.5,151.5 Z"/></g>
<g><path style="opacity:1" fill="#1e1e20" d="M 350.5,335.5 C 351.822,335.33 352.989,335.663 354,336.5C 354.667,343.833 354.667,351.167 354,358.5C 352.89,360.037 351.39,360.703 349.5,360.5C 349.198,352.082 349.531,343.748 350.5,335.5 Z"/></g>
<g><path style="opacity:1" fill="#151517" d="M 360.5,329.5 C 361.822,329.33 362.989,329.663 364,330.5C 364.667,338.167 364.667,345.833 364,353.5C 362.667,354.833 361.333,354.833 360,353.5C 359.2,345.421 359.367,337.421 360.5,329.5 Z"/></g>
<g><path style="opacity:1" fill="#c4c4c4" d="M 239.5,230.5 C 243.383,230.751 245.383,232.751 245.5,236.5C 243.418,236.472 241.584,237.139 240,238.5C 239.503,235.854 239.336,233.187 239.5,230.5 Z"/></g>
<g><path style="opacity:1" fill="#fafbfb" d="M 187.5,224.5 C 189.171,227.608 190.171,231.108 190.5,235C 203.677,242.183 216.843,249.35 230,256.5C 236.231,253.301 242.397,249.968 248.5,246.5C 249.167,242.833 249.833,239.167 250.5,235.5C 260.135,240.652 269.802,245.819 279.5,251C 280.655,263.758 280.822,276.591 280,289.5C 269.216,295.807 258.383,301.974 247.5,308C 245.635,309.301 243.635,309.635 241.5,309C 207.209,290.521 173.209,271.521 139.5,252C 155.875,243.285 171.875,234.118 187.5,224.5 Z"/></g>
<g><path style="opacity:1" fill="#c2c4c3" d="M 329.5,217.5 C 330.527,219.194 331.861,220.527 333.5,221.5C 329.98,224.184 326.147,226.518 322,228.5C 321.333,226.167 321.333,223.833 322,221.5C 324.448,220.027 326.948,218.693 329.5,217.5 Z"/></g>
<g><path style="opacity:1" fill="#f4f5f5" d="M 360.5,218.5 C 362.161,241.152 363.161,264.152 363.5,287.5C 364.183,287.863 364.85,288.196 365.5,288.5C 368.021,290.019 370.521,291.686 373,293.5C 373.706,295.971 373.373,298.305 372,300.5C 362.426,305.37 352.926,310.37 343.5,315.5C 340.319,313.408 337.319,311.075 334.5,308.5C 337.933,305.941 341.599,303.608 345.5,301.5C 337.963,296.801 330.297,292.301 322.5,288C 321.409,285.936 321.242,283.769 322,281.5C 326.609,278.779 331.442,276.446 336.5,274.5C 343.042,277.688 349.542,281.021 356,284.5C 356.167,262.826 356.667,241.159 357.5,219.5C 358.417,218.873 359.417,218.539 360.5,218.5 Z"/></g>
<g><path style="opacity:1" fill="#817f80" d="M 280.5,205.5 C 281.485,209.634 281.818,213.968 281.5,218.5C 280.209,218.737 279.209,218.404 278.5,217.5C 280.423,213.971 281.089,209.971 280.5,205.5 Z"/></g>
<g><path style="opacity:1" fill="#d5d5d5" d="M 314.5,203.5 C 315.822,203.33 316.989,203.663 318,204.5C 318.833,219.178 318.666,233.845 317.5,248.5C 315.082,249.457 312.916,250.791 311,252.5C 310.333,237.5 310.333,222.5 311,207.5C 312.376,206.295 313.542,204.962 314.5,203.5 Z"/></g>
<g><path style="opacity:1" fill="#585858" d="M 164.5,195.5 C 164.172,206.679 164.505,217.679 165.5,228.5C 165.44,229.043 165.107,229.376 164.5,229.5C 163.176,218.007 163.176,206.674 164.5,195.5 Z"/></g>
<g><path style="opacity:1" fill="#f5f5f5" d="M 239.5,204.5 C 252.981,212.075 266.647,219.409 280.5,226.5C 281.663,232.137 281.83,237.804 281,243.5C 267.042,236.354 253.375,228.688 240,220.5C 239.501,215.177 239.334,209.844 239.5,204.5 Z"/></g>
<g><path style="opacity:1" fill="#f3f3f3" d="M 333.5,221.5 C 331.861,220.527 330.527,219.194 329.5,217.5C 343.732,209.132 358.232,201.132 373,193.5C 373.944,196.347 373.444,198.847 371.5,201C 358.907,208.127 346.24,214.961 333.5,221.5 Z"/></g>
<g><path style="opacity:1" fill="#f9f9f9" d="M 164.5,195.5 C 166.781,196.207 168.948,197.207 171,198.5C 171.667,207.5 171.667,216.5 171,225.5C 169.22,226.639 167.386,227.639 165.5,228.5C 164.505,217.679 164.172,206.679 164.5,195.5 Z"/></g>
<g><path style="opacity:1" fill="#f5f5f5" d="M 280.5,205.5 C 281.089,209.971 280.423,213.971 278.5,217.5C 269.408,212.925 260.408,208.092 251.5,203C 250.167,199.667 248.833,196.333 247.5,193C 239.748,189.06 232.415,184.56 225.5,179.5C 227.316,178.058 229.316,177.558 231.5,178C 247.893,187.193 264.226,196.359 280.5,205.5 Z"/></g>
<g><path style="opacity:1" fill="#c8c8ca" d="M 362.5,194.5 C 362.5,189.5 362.5,184.5 362.5,179.5C 363.172,178.733 364.005,178.066 365,177.5C 365.667,182.833 365.667,188.167 365,193.5C 364.329,194.252 363.496,194.586 362.5,194.5 Z"/></g>
<g><path style="opacity:1" fill="#f6f7f7" d="M 212.5,181.5 C 222.452,185.909 232.119,191.076 241.5,197C 237.833,199.167 234.167,201.333 230.5,203.5C 229.667,217.154 229.167,230.821 229,244.5C 217.537,238.434 206.204,232.101 195,225.5C 194.333,214.5 194.333,203.5 195,192.5C 200.813,188.683 206.647,185.017 212.5,181.5 Z"/></g>
<g><path style="opacity:1" fill="#151515" d="M 202.5,197.5 C 211.463,196.896 217.963,200.562 222,208.5C 225.464,215.342 225.297,222.008 221.5,228.5C 211.958,229.811 204.791,226.145 200,217.5C 196.042,210.055 196.875,203.388 202.5,197.5 Z"/></g>
<g><path style="opacity:1" fill="#f0f0f0" d="M 207.5,205.5 C 213.115,206.448 216.448,209.782 217.5,215.5C 216.514,219.147 214.181,220.314 210.5,219C 205.204,215.409 204.204,210.909 207.5,205.5 Z"/></g>
<g><path style="opacity:1" fill="#e8e8e9" d="M 362.5,179.5 C 362.5,184.5 362.5,189.5 362.5,194.5C 361.264,196.043 359.598,197.043 357.5,197.5C 356.338,192.533 356.171,187.533 357,182.5C 358.741,181.242 360.574,180.242 362.5,179.5 Z"/></g>
<g><path style="opacity:1" fill="#ced0cf" d="M 303.5,163.5 C 308.254,164.618 309.754,167.618 308,172.5C 306.915,173.293 305.748,173.96 304.5,174.5C 303.511,170.893 303.177,167.226 303.5,163.5 Z"/></g>
<g><path style="opacity:1" fill="#f1f1f1" d="M 123.5,157.5 C 145.251,168.729 166.918,180.229 188.5,192C 189.777,194.466 189.777,196.966 188.5,199.5C 166.487,186.825 144.153,174.658 121.5,163C 120.833,162.333 120.167,161.667 119.5,161C 121.093,160.051 122.426,158.885 123.5,157.5 Z"/></g>
<g><path style="opacity:1" fill="#f1f1f1" d="M 136.5,151.5 C 142.77,154.298 149.104,157.132 155.5,160C 169.5,168 183.5,176 197.5,184C 194.199,188.209 190.533,188.543 186.5,185C 168.5,175 150.5,165 132.5,155C 134.093,154.051 135.426,152.885 136.5,151.5 Z"/></g>
<g><path style="opacity:1" fill="#e6e6e6" d="M 281.5,150.5 C 283.044,150.703 284.378,151.37 285.5,152.5C 286.665,159.811 286.831,167.144 286,174.5C 284.667,175.833 283.333,175.833 282,174.5C 281.5,166.507 281.334,158.507 281.5,150.5 Z"/></g>
<g><path style="opacity:1" fill="#d4d4d5" d="M 190.5,142.5 C 193.241,142.707 195.574,143.707 197.5,145.5C 197.832,155.522 197.499,165.522 196.5,175.5C 194.668,174.752 193.001,173.752 191.5,172.5C 190.501,162.522 190.168,152.522 190.5,142.5 Z"/></g>
<g><path style="opacity:1" fill="#1d1d1d" d="M 189.5,357.5 C 194.772,358.263 196.439,361.097 194.5,366C 188.977,365.616 187.31,362.783 189.5,357.5 Z"/></g>
<g><path style="opacity:1" fill="#a5a5a5" d="M 177.5,343.5 C 178.823,353.674 178.823,364.007 177.5,374.5C 176.893,374.376 176.56,374.043 176.5,373.5C 177.494,363.681 177.827,353.681 177.5,343.5 Z"/></g>
<g><path style="opacity:1" fill="#efefef" d="M 292.5,360.5 C 297.8,361.392 298.8,364.058 295.5,368.5C 292.108,371.592 290.108,370.926 289.5,366.5C 289.628,364.045 290.628,362.045 292.5,360.5 Z"/></g>
<g><path style="opacity:1" fill="#181818" d="M 201.5,365.5 C 207.144,365.297 209.144,367.797 207.5,373C 202.178,373.493 200.178,370.993 201.5,365.5 Z"/></g>
<g><path style="opacity:1" fill="#212223" d="M 320.5,352.5 C 321.496,352.414 322.329,352.748 323,353.5C 323.667,360.833 323.667,368.167 323,375.5C 321.921,377.394 320.587,377.727 319,376.5C 318.5,368.841 318.334,361.174 318.5,353.5C 319.167,353.167 319.833,352.833 320.5,352.5 Z"/></g>
<g><path style="opacity:1" fill="#f2f2f2" d="M 279.5,367.5 C 282.243,367.077 283.576,368.244 283.5,371C 283.289,373.932 281.956,376.099 279.5,377.5C 277.112,377.288 276.112,375.955 276.5,373.5C 276.628,371.045 277.628,369.045 279.5,367.5 Z"/></g>
<g><path style="opacity:1" fill="#171717" d="M 189.5,371.5 C 194.815,371.497 196.815,374.164 195.5,379.5C 189.625,379.751 187.625,377.084 189.5,371.5 Z"/></g>
<g><path style="opacity:1" fill="#171717" d="M 217.5,373.5 C 229.547,375.379 235.047,382.379 234,394.5C 231.774,398.861 228.274,400.361 223.5,399C 214.647,393.804 211.48,386.304 214,376.5C 215.145,375.364 216.312,374.364 217.5,373.5 Z"/></g>
<g><path style="opacity:1" fill="#222222" d="M 202.5,378.5 C 207.852,379.694 209.185,382.527 206.5,387C 200.481,386.445 199.147,383.612 202.5,378.5 Z"/></g>
<g><path style="opacity:1" fill="#d5d6d6" d="M 262.5,419.5 C 261.504,405.677 261.171,391.677 261.5,377.5C 262.43,373.907 264.763,372.241 268.5,372.5C 268.667,386.504 268.5,400.504 268,414.5C 266.945,417.056 265.112,418.723 262.5,419.5 Z"/></g>
<g><path style="opacity:1" fill="#ececec" d="M 219.5,381.5 C 225.331,381.98 227.665,384.98 226.5,390.5C 222.013,391.386 219.346,389.386 218.5,384.5C 218.685,383.416 219.018,382.416 219.5,381.5 Z"/></g>
<g><path style="opacity:1" fill="#9d9d9d" d="M 261.5,377.5 C 261.171,391.677 261.504,405.677 262.5,419.5C 262.44,420.043 262.107,420.376 261.5,420.5C 260.174,406.006 260.174,391.672 261.5,377.5 Z"/></g>
</svg>
